<svg width="568" height="65" viewBox="0 0 586 65" fill="none" xmlns="http://www.w3.org/2000/svg">
<path d="M169.724 25.2323L173.333 21.6706V10.8353L162.498 0H126.391L115.556 10.8353V3.61705L111.946 0H97.502L93.8928 3.61705V10.8353L86.6667 18.0615L79.4484 10.8353V3.61705L75.8314 0H61.3869L57.7778 3.61705L54.1686 0H39.7242L36.1151 3.61705V18.0615L18.0536 0H3.60913L0 3.61705V54.1686L3.60913 57.7778H18.0536L21.6706 54.1686V39.7242L39.7242 57.7778H54.1686L57.7778 54.1686V25.2798L75.8314 43.3333V54.1686L79.4484 57.7778H93.8928L97.502 54.1686V43.3333L115.556 25.2798V46.9504L126.391 57.7778H162.498L173.333 46.9504V36.1151L169.724 32.498H151.663V36.1151H137.226V21.6706H151.663V25.2323H169.724Z" fill="currentColor"/>
<path d="M170.761 2.43778C171.101 2.43778 171.394 2.40612 171.394 2.01038C171.394 1.67796 171.07 1.63839 170.801 1.63839H170.255V2.43778H170.761ZM170.262 3.98907H169.811V1.25848H170.848C171.505 1.25848 171.845 1.48801 171.845 2.04204C171.845 2.54067 171.545 2.73854 171.133 2.78603L171.901 3.98907H171.394L170.69 2.81769H170.27V3.98907H170.262ZM170.745 0.538237C169.677 0.538237 168.846 1.3772 168.846 2.58025C168.846 3.70414 169.574 4.62226 170.745 4.62226C171.806 4.62226 172.637 3.79121 172.637 2.58025C172.637 1.3772 171.806 0.538237 170.745 0.538237ZM170.745 5.04965C169.329 5.04965 168.315 3.98907 168.315 2.58025C168.315 1.09227 169.439 0.11084 170.745 0.11084C172.035 0.11084 173.159 1.09227 173.159 2.58025C173.167 4.06031 172.043 5.04965 170.745 5.04965Z" fill="currentColor"/>
<path d="M187.947 35.9065H191.472V24.9873H191.513L194.535 35.9065H197.395L200.417 24.9873H200.458V35.9065H203.983V21.5221H198.463L195.985 31.1117H195.945L193.467 21.5221H187.947V35.9065ZM209.297 32.9047C209.297 32.0787 209.942 31.7564 210.708 31.5751C211.453 31.3736 212.339 31.3132 212.823 31.011C212.903 33.1666 212.359 34.0933 210.728 34.0933C209.962 34.0933 209.297 33.7509 209.297 32.9047ZM209.499 28.674C209.66 27.7876 210.264 27.3645 211.211 27.3645C211.916 27.3645 212.863 27.6667 212.863 28.4524C212.863 29.0971 212.541 29.2985 211.957 29.4194C209.579 29.9029 205.872 29.641 205.872 33.0457C205.872 35.2014 207.444 36.2087 209.438 36.2087C210.687 36.2087 211.997 35.8461 212.883 34.9193C212.924 35.2618 212.964 35.5842 213.085 35.9065H216.53C216.127 35.0805 216.127 34.1135 216.127 33.227V28.6539C216.127 25.6924 213.729 25.1484 211.251 25.1484C210.063 25.1484 208.854 25.3499 207.927 25.8737C207.001 26.4176 206.356 27.3041 206.295 28.674H209.499ZM228.814 25.4506H225.309L223.335 32.26H223.294L221.32 25.4506H217.694L220.393 32.7234C220.595 33.2875 221.26 34.8992 221.26 35.4633C221.26 36.1885 220.675 36.6318 219.89 36.6318H218.701V39.4119H220.313C222.629 39.4119 223.858 39.1299 224.684 36.8332L228.814 25.4506ZM232.725 30.6886C232.725 29.359 233.208 27.7674 234.8 27.7674C236.392 27.7674 236.895 29.359 236.895 30.6886C236.895 32.0183 236.392 33.5897 234.8 33.5897C233.208 33.5897 232.725 32.0183 232.725 30.6886ZM229.3 30.6886C229.3 33.8314 231.556 36.2087 234.8 36.2087C238.044 36.2087 240.32 33.8314 240.32 30.6886C240.32 27.5458 238.044 25.1484 234.8 25.1484C231.556 25.1484 229.3 27.5458 229.3 30.6886ZM242.241 35.9065H245.665V30.7289C245.665 29.4194 246.552 28.2509 248.244 28.2509C248.707 28.2509 249.11 28.3315 249.554 28.4524V25.3297C249.292 25.2693 249.01 25.2492 248.748 25.2492C247.277 25.2492 246.109 25.9543 245.605 27.2839H245.565V25.4506H242.241V35.9065ZM250.939 25.2693H252.39C252.45 26.196 251.826 27.0019 250.939 27.163V28.7747C253.135 28.4121 254.122 26.881 254.143 24.8664V21.5221H250.939V25.2693ZM254.559 32.4615C254.66 35.3827 257.198 36.2087 259.676 36.2087C262.033 36.2087 264.693 35.282 264.693 32.4816C264.693 31.6154 264.149 30.0842 262.033 29.6612C260.462 29.3187 258.165 29.1374 258.165 28.1502C258.165 27.4249 259.072 27.3645 259.636 27.3645C260.059 27.3645 260.442 27.4451 260.724 27.6264C261.006 27.8077 261.167 28.0898 261.167 28.533H264.33C264.209 25.8132 261.812 25.1484 259.515 25.1484C257.46 25.1484 254.74 25.8334 254.74 28.3517C254.74 31.1721 257.44 31.2326 259.596 31.7765C260.2 31.9175 261.268 32.0787 261.268 32.8846C261.268 33.7106 260.321 33.9926 259.656 33.9926C259.173 33.9926 258.709 33.8717 258.387 33.63C258.044 33.3681 257.823 32.9853 257.823 32.4615H254.559ZM272.31 28.7143C272.31 32.8846 274.868 36.2087 279.401 36.2087C283.934 36.2087 286.493 32.8846 286.493 28.7143C286.493 24.544 283.934 21.2199 279.401 21.2199C274.868 21.2199 272.31 24.544 272.31 28.7143ZM276.057 28.7143C276.057 26.5788 276.984 24.4433 279.401 24.4433C281.819 24.4433 282.746 26.5788 282.746 28.7143C282.746 30.8498 281.819 32.9853 279.401 32.9853C276.984 32.9853 276.057 30.8498 276.057 28.7143ZM289.138 35.9065H292.563V27.6667H294.618V25.4506H292.563V24.9873C292.563 24.0404 293.047 23.9397 293.832 23.9397C294.135 23.9397 294.437 23.9598 294.759 24.0001V21.5825C294.215 21.5624 293.651 21.5221 293.107 21.5221C290.186 21.5221 289.138 22.4488 289.138 25.4506H287.486V27.6667H289.138V35.9065ZM296.595 35.9065H300.02V27.6667H302.075V25.4506H300.02V24.9873C300.02 24.0404 300.503 23.9397 301.289 23.9397C301.591 23.9397 301.893 23.9598 302.216 24.0001V21.5825C301.672 21.5624 301.108 21.5221 300.564 21.5221C297.642 21.5221 296.595 22.4488 296.595 25.4506H294.943V27.6667H296.595V35.9065ZM303.628 35.9065H307.053V25.4506H303.628V35.9065ZM307.053 21.5221H303.628V24.1411H307.053V21.5221ZM319.401 29.2784C319.159 26.5184 316.842 25.1484 314.243 25.1484C310.879 25.1484 308.763 27.5257 308.763 30.8498C308.763 34.053 311.1 36.2087 314.243 36.2087C317.023 36.2087 319.199 34.597 319.501 31.7967H316.177C316.016 32.9047 315.412 33.5897 314.223 33.5897C312.773 33.5897 312.188 32.1996 312.188 30.8498C312.188 29.3993 312.491 27.7674 314.404 27.7674C315.271 27.7674 316.056 28.392 316.077 29.2784H319.401ZM323.728 29.6007C323.929 28.3315 324.735 27.4652 325.944 27.4652C327.092 27.4652 327.918 28.4323 327.978 29.6007H323.728ZM331.403 31.5146C331.564 27.9689 329.691 25.1484 325.944 25.1484C322.861 25.1484 320.303 27.4451 320.303 30.6483C320.303 34.1538 322.619 36.2087 326.024 36.2087C328.361 36.2087 330.597 35.1611 331.222 32.7435H328.019C327.696 33.5091 326.89 33.8919 326.064 33.8919C324.614 33.8919 323.788 32.945 323.728 31.5146H331.403ZM340.222 35.9065H343.647V27.6667H345.702V25.4506H343.647V24.9873C343.647 24.0404 344.131 23.9397 344.916 23.9397C345.219 23.9397 345.521 23.9598 345.843 24.0001V21.5825C345.299 21.5624 344.735 21.5221 344.191 21.5221C341.27 21.5221 340.222 22.4488 340.222 25.4506H338.57V27.6667H340.222V35.9065ZM349.855 30.6886C349.855 29.359 350.338 27.7674 351.93 27.7674C353.521 27.7674 354.025 29.359 354.025 30.6886C354.025 32.0183 353.521 33.5897 351.93 33.5897C350.338 33.5897 349.855 32.0183 349.855 30.6886ZM346.43 30.6886C346.43 33.8314 348.686 36.2087 351.93 36.2087C355.173 36.2087 357.45 33.8314 357.45 30.6886C357.45 27.5458 355.173 25.1484 351.93 25.1484C348.686 25.1484 346.43 27.5458 346.43 30.6886ZM359.37 35.9065H362.795V30.7289C362.795 29.4194 363.682 28.2509 365.374 28.2509C365.837 28.2509 366.24 28.3315 366.683 28.4524V25.3297C366.421 25.2693 366.139 25.2492 365.877 25.2492C364.407 25.2492 363.238 25.9543 362.735 27.2839H362.694V25.4506H359.37V35.9065ZM187.927 57.9065H199.591V54.6831H191.674V51.9432H198.725V49.0422H191.674V46.5239H199.39V43.5221H187.927V57.9065ZM211.509 51.2784C211.267 48.5184 208.951 47.1484 206.352 47.1484C202.987 47.1484 200.872 49.5257 200.872 52.8498C200.872 56.053 203.209 58.2087 206.352 58.2087C209.132 58.2087 211.308 56.597 211.61 53.7967H208.286C208.125 54.9047 207.52 55.5897 206.332 55.5897C204.881 55.5897 204.297 54.1996 204.297 52.8498C204.297 51.3993 204.599 49.7674 206.513 49.7674C207.379 49.7674 208.165 50.392 208.185 51.2784H211.509ZM216.239 52.6886C216.239 51.359 216.722 49.7674 218.314 49.7674C219.906 49.7674 220.409 51.359 220.409 52.6886C220.409 54.0183 219.906 55.5897 218.314 55.5897C216.722 55.5897 216.239 54.0183 216.239 52.6886ZM212.814 52.6886C212.814 55.8314 215.07 58.2087 218.314 58.2087C221.557 58.2087 223.834 55.8314 223.834 52.6886C223.834 49.5458 221.557 47.1484 218.314 47.1484C215.07 47.1484 212.814 49.5458 212.814 52.6886ZM225.432 57.9065H228.857V52.2051C228.857 51.0568 229.421 49.9689 230.71 49.9689C232.584 49.9689 232.423 51.4194 232.423 52.8498V57.9065H235.848V51.1978C235.848 49.6868 235.566 47.1484 232.08 47.1484C230.831 47.1484 229.421 47.8132 228.797 48.881H228.756V47.4506H225.432V57.9065ZM240.842 52.6886C240.842 51.359 241.325 49.7674 242.917 49.7674C244.508 49.7674 245.012 51.359 245.012 52.6886C245.012 54.0183 244.508 55.5897 242.917 55.5897C241.325 55.5897 240.842 54.0183 240.842 52.6886ZM237.417 52.6886C237.417 55.8314 239.673 58.2087 242.917 58.2087C246.16 58.2087 248.437 55.8314 248.437 52.6886C248.437 49.5458 246.16 47.1484 242.917 47.1484C239.673 47.1484 237.417 49.5458 237.417 52.6886ZM250.035 57.9065H253.46V52.8095C253.46 50.674 253.984 49.9689 255.213 49.9689C256.139 49.9689 256.502 50.7344 256.502 51.9634V57.9065H259.927V52.7894C259.927 51.0971 260.068 49.9689 261.538 49.9689C262.425 49.9689 262.969 50.6337 262.969 51.7619V57.9065H266.394V51.6612C266.394 49.6667 266.031 47.1484 262.707 47.1484C261.297 47.1484 260.269 47.7327 259.443 48.8407C258.879 47.5715 257.711 47.1484 256.401 47.1484C255.132 47.1484 254.024 47.8334 253.399 48.881H253.359V47.4506H250.035V57.9065ZM268.807 57.9065H272.232V47.4506H268.807V57.9065ZM272.232 43.5221H268.807V46.1411H272.232V43.5221ZM284.781 51.2784C284.539 48.5184 282.222 47.1484 279.623 47.1484C276.259 47.1484 274.143 49.5257 274.143 52.8498C274.143 56.053 276.48 58.2087 279.623 58.2087C282.403 58.2087 284.579 56.597 284.881 53.7967H281.557C281.396 54.9047 280.792 55.5897 279.603 55.5897C278.153 55.5897 277.568 54.1996 277.568 52.8498C277.568 51.3993 277.871 49.7674 279.784 49.7674C280.651 49.7674 281.436 50.392 281.457 51.2784H284.781ZM292.541 50.7143C292.541 54.8846 295.1 58.2087 299.633 58.2087C304.165 58.2087 306.724 54.8846 306.724 50.7143C306.724 46.544 304.165 43.2199 299.633 43.2199C295.1 43.2199 292.541 46.544 292.541 50.7143ZM296.288 50.7143C296.288 48.5788 297.215 46.4433 299.633 46.4433C302.05 46.4433 302.977 48.5788 302.977 50.7143C302.977 52.8498 302.05 54.9853 299.633 54.9853C297.215 54.9853 296.288 52.8498 296.288 50.7143ZM314.023 49.7674C315.534 49.7674 316.058 51.2381 316.058 52.5678C316.058 53.9981 315.534 55.5897 314.003 55.5897C312.452 55.5897 311.928 54.4011 311.928 52.5678C311.928 50.4121 313.097 49.7674 314.023 49.7674ZM308.624 61.4119H312.049V56.7783H312.089C312.794 57.7252 313.782 58.2087 315.071 58.2087C318.032 58.2087 319.483 55.63 319.483 52.9102C319.483 49.9689 318.093 47.1484 314.809 47.1484C313.6 47.1484 312.593 47.6722 311.928 48.6594H311.888V47.4506H308.624V61.4119ZM326.713 49.7674C328.224 49.7674 328.748 51.2381 328.748 52.5678C328.748 53.9981 328.224 55.5897 326.693 55.5897C325.142 55.5897 324.618 54.4011 324.618 52.5678C324.618 50.4121 325.786 49.7674 326.713 49.7674ZM321.314 61.4119H324.739V56.7783H324.779C325.484 57.7252 326.471 58.2087 327.761 58.2087C330.722 58.2087 332.173 55.63 332.173 52.9102C332.173 49.9689 330.783 47.1484 327.499 47.1484C326.29 47.1484 325.283 47.6722 324.618 48.6594H324.578V47.4506H321.314V61.4119ZM336.723 52.6886C336.723 51.359 337.207 49.7674 338.798 49.7674C340.39 49.7674 340.894 51.359 340.894 52.6886C340.894 54.0183 340.39 55.5897 338.798 55.5897C337.207 55.5897 336.723 54.0183 336.723 52.6886ZM333.299 52.6886C333.299 55.8314 335.555 58.2087 338.798 58.2087C342.042 58.2087 344.319 55.8314 344.319 52.6886C344.319 49.5458 342.042 47.1484 338.798 47.1484C335.555 47.1484 333.299 49.5458 333.299 52.6886ZM346.038 57.9065H349.462V52.7289C349.462 51.4194 350.349 50.2509 352.041 50.2509C352.504 50.2509 352.907 50.3315 353.351 50.4524V47.3297C353.089 47.2693 352.807 47.2492 352.545 47.2492C351.074 47.2492 349.906 47.9543 349.402 49.2839H349.362V47.4506H346.038V57.9065ZM361.405 47.4506H359.289V44.2877H355.864V47.4506H354.132V49.6667H355.864V54.3205C355.864 57.1611 356.61 58.0072 359.531 58.0072C360.156 58.0072 360.78 57.9266 361.405 57.9065V55.3882C361.103 55.3882 360.8 55.4285 360.518 55.4285C359.773 55.4285 359.289 55.2472 359.289 54.4212V49.6667H361.405V47.4506ZM373.325 47.4506H369.9V53.0513C369.9 54.9047 368.772 55.3882 368.026 55.3882C366.938 55.3882 366.334 54.9047 366.334 53.5146V47.4506H362.909V53.7362C362.909 56.4761 363.775 58.2087 366.777 58.2087C367.986 58.2087 369.316 57.5439 369.96 56.4761H370.001V57.9065H373.325V47.4506ZM375.619 57.9065H379.044V52.2051C379.044 51.0568 379.608 49.9689 380.897 49.9689C382.771 49.9689 382.61 51.4194 382.61 52.8498V57.9065H386.035V51.1978C386.035 49.6868 385.752 47.1484 382.267 47.1484C381.018 47.1484 379.608 47.8132 378.983 48.881H378.943V47.4506H375.619V57.9065ZM388.43 57.9065H391.854V47.4506H388.43V57.9065ZM391.854 43.5221H388.43V46.1411H391.854V43.5221ZM400.576 47.4506H398.46V44.2877H395.035V47.4506H393.303V49.6667H395.035V54.3205C395.035 57.1611 395.781 58.0072 398.702 58.0072C399.327 58.0072 399.951 57.9266 400.576 57.9065V55.3882C400.273 55.3882 399.971 55.4285 399.689 55.4285C398.944 55.4285 398.46 55.2472 398.46 54.4212V49.6667H400.576V47.4506ZM412.133 47.4506H408.628L406.653 54.26H406.613L404.639 47.4506H401.012L403.712 54.7234C403.913 55.2875 404.578 56.8992 404.578 57.4633C404.578 58.1885 403.994 58.6318 403.208 58.6318H402.02V61.4119H403.631C405.948 61.4119 407.177 61.1299 408.003 58.8332L412.133 47.4506Z" fill="currentColor"/>
<path d="M441.105 35.9065H444.63V24.9873H444.671L447.693 35.9065H450.553L453.575 24.9873H453.616V35.9065H457.141V21.5221H451.621L449.143 31.1117H449.103L446.625 21.5221H441.105V35.9065ZM462.455 32.9047C462.455 32.0787 463.1 31.7564 463.866 31.5751C464.611 31.3736 465.498 31.3132 465.981 31.011C466.062 33.1666 465.518 34.0933 463.886 34.0933C463.12 34.0933 462.455 33.7509 462.455 32.9047ZM462.657 28.674C462.818 27.7876 463.422 27.3645 464.369 27.3645C465.074 27.3645 466.021 27.6667 466.021 28.4524C466.021 29.0971 465.699 29.2985 465.115 29.4194C462.738 29.9029 459.031 29.641 459.031 33.0457C459.031 35.2014 460.602 36.2087 462.597 36.2087C463.846 36.2087 465.155 35.8461 466.042 34.9193C466.082 35.2618 466.122 35.5842 466.243 35.9065H469.688C469.285 35.0805 469.285 34.1135 469.285 33.227V28.6539C469.285 25.6924 466.888 25.1484 464.41 25.1484C463.221 25.1484 462.012 25.3499 461.086 25.8737C460.159 26.4176 459.514 27.3041 459.454 28.674H462.657ZM481.973 25.4506H478.467L476.493 32.26H476.453L474.478 25.4506H470.852L473.551 32.7234C473.753 33.2875 474.418 34.8992 474.418 35.4633C474.418 36.1885 473.834 36.6318 473.048 36.6318H471.859V39.4119H473.471C475.788 39.4119 477.017 39.1299 477.843 36.8332L481.973 25.4506ZM485.883 30.6886C485.883 29.359 486.367 27.7674 487.958 27.7674C489.55 27.7674 490.053 29.359 490.053 30.6886C490.053 32.0183 489.55 33.5897 487.958 33.5897C486.367 33.5897 485.883 32.0183 485.883 30.6886ZM482.458 30.6886C482.458 33.8314 484.715 36.2087 487.958 36.2087C491.202 36.2087 493.478 33.8314 493.478 30.6886C493.478 27.5458 491.202 25.1484 487.958 25.1484C484.715 25.1484 482.458 27.5458 482.458 30.6886ZM495.399 35.9065H498.824V30.7289C498.824 29.4194 499.71 28.2509 501.402 28.2509C501.866 28.2509 502.269 28.3315 502.712 28.4524V25.3297C502.45 25.2693 502.168 25.2492 501.906 25.2492C500.435 25.2492 499.267 25.9543 498.763 27.2839H498.723V25.4506H495.399V35.9065ZM504.098 25.2693H505.548C505.608 26.196 504.984 27.0019 504.098 27.163V28.7747C506.293 28.4121 507.281 26.881 507.301 24.8664V21.5221H504.098V25.2693ZM507.717 32.4615C507.818 35.3827 510.357 36.2087 512.835 36.2087C515.192 36.2087 517.851 35.282 517.851 32.4816C517.851 31.6154 517.307 30.0842 515.192 29.6612C513.62 29.3187 511.324 29.1374 511.324 28.1502C511.324 27.4249 512.23 27.3645 512.794 27.3645C513.217 27.3645 513.6 27.4451 513.882 27.6264C514.164 27.8077 514.325 28.0898 514.325 28.533H517.488C517.367 25.8132 514.97 25.1484 512.673 25.1484C510.618 25.1484 507.899 25.8334 507.899 28.3517C507.899 31.1721 510.598 31.2326 512.754 31.7765C513.358 31.9175 514.426 32.0787 514.426 32.8846C514.426 33.7106 513.479 33.9926 512.814 33.9926C512.331 33.9926 511.867 33.8717 511.545 33.63C511.203 33.3681 510.981 32.9853 510.981 32.4615H507.717ZM525.468 28.7143C525.468 32.8846 528.027 36.2087 532.56 36.2087C537.092 36.2087 539.651 32.8846 539.651 28.7143C539.651 24.544 537.092 21.2199 532.56 21.2199C528.027 21.2199 525.468 24.544 525.468 28.7143ZM529.215 28.7143C529.215 26.5788 530.142 24.4433 532.56 24.4433C534.977 24.4433 535.904 26.5788 535.904 28.7143C535.904 30.8498 534.977 32.9853 532.56 32.9853C530.142 32.9853 529.215 30.8498 529.215 28.7143ZM542.297 35.9065H545.721V27.6667H547.776V25.4506H545.721V24.9873C545.721 24.0404 546.205 23.9397 546.991 23.9397C547.293 23.9397 547.595 23.9598 547.917 24.0001V21.5825C547.373 21.5624 546.809 21.5221 546.265 21.5221C543.344 21.5221 542.297 22.4488 542.297 25.4506H540.645V27.6667H542.297V35.9065ZM549.753 35.9065H553.178V27.6667H555.233V25.4506H553.178V24.9873C553.178 24.0404 553.661 23.9397 554.447 23.9397C554.749 23.9397 555.052 23.9598 555.374 24.0001V21.5825C554.83 21.5624 554.266 21.5221 553.722 21.5221C550.801 21.5221 549.753 22.4488 549.753 25.4506H548.101V27.6667H549.753V35.9065ZM556.786 35.9065H560.211V25.4506H556.786V35.9065ZM560.211 21.5221H556.786V24.1411H560.211V21.5221ZM572.559 29.2784C572.317 26.5184 570 25.1484 567.401 25.1484C564.037 25.1484 561.922 27.5257 561.922 30.8498C561.922 34.053 564.259 36.2087 567.401 36.2087C570.182 36.2087 572.357 34.597 572.66 31.7967H569.335C569.174 32.9047 568.57 33.5897 567.381 33.5897C565.931 33.5897 565.347 32.1996 565.347 30.8498C565.347 29.3993 565.649 27.7674 567.563 27.7674C568.429 27.7674 569.215 28.392 569.235 29.2784H572.559ZM576.886 29.6007C577.087 28.3315 577.893 27.4652 579.102 27.4652C580.25 27.4652 581.076 28.4323 581.137 29.6007H576.886ZM584.561 31.5146C584.723 27.9689 582.849 25.1484 579.102 25.1484C576.019 25.1484 573.461 27.4451 573.461 30.6483C573.461 34.1538 575.778 36.2087 579.182 36.2087C581.519 36.2087 583.756 35.1611 584.38 32.7435H581.177C580.855 33.5091 580.049 33.8919 579.223 33.8919C577.772 33.8919 576.946 32.945 576.886 31.5146H584.561ZM443.865 52.6886C443.865 51.359 444.348 49.7674 445.94 49.7674C447.532 49.7674 448.035 51.359 448.035 52.6886C448.035 54.0183 447.532 55.5897 445.94 55.5897C444.348 55.5897 443.865 54.0183 443.865 52.6886ZM440.44 52.6886C440.44 55.8314 442.696 58.2087 445.94 58.2087C449.184 58.2087 451.46 55.8314 451.46 52.6886C451.46 49.5458 449.184 47.1484 445.94 47.1484C442.696 47.1484 440.44 49.5458 440.44 52.6886ZM454.005 57.9065H457.43V49.6667H459.485V47.4506H457.43V46.9873C457.43 46.0404 457.913 45.9397 458.699 45.9397C459.001 45.9397 459.304 45.9598 459.626 46.0001V43.5825C459.082 43.5624 458.518 43.5221 457.974 43.5221C455.053 43.5221 454.005 44.4488 454.005 47.4506H452.353V49.6667H454.005V57.9065ZM466.668 50.7143C466.668 54.8846 469.226 58.2087 473.759 58.2087C478.292 58.2087 480.851 54.8846 480.851 50.7143C480.851 46.544 478.292 43.2199 473.759 43.2199C469.226 43.2199 466.668 46.544 466.668 50.7143ZM470.415 50.7143C470.415 48.5788 471.342 46.4433 473.759 46.4433C476.177 46.4433 477.104 48.5788 477.104 50.7143C477.104 52.8498 476.177 54.9853 473.759 54.9853C471.342 54.9853 470.415 52.8498 470.415 50.7143ZM488.15 49.7674C489.661 49.7674 490.185 51.2381 490.185 52.5678C490.185 53.9981 489.661 55.5897 488.13 55.5897C486.579 55.5897 486.055 54.4011 486.055 52.5678C486.055 50.4121 487.224 49.7674 488.15 49.7674ZM482.751 61.4119H486.176V56.7783H486.216C486.921 57.7252 487.908 58.2087 489.198 58.2087C492.159 58.2087 493.61 55.63 493.61 52.9102C493.61 49.9689 492.22 47.1484 488.936 47.1484C487.727 47.1484 486.72 47.6722 486.055 48.6594H486.015V47.4506H482.751V61.4119ZM498.362 51.6007C498.563 50.3315 499.369 49.4652 500.578 49.4652C501.726 49.4652 502.552 50.4323 502.613 51.6007H498.362ZM506.038 53.5146C506.199 49.9689 504.325 47.1484 500.578 47.1484C497.496 47.1484 494.937 49.4451 494.937 52.6483C494.937 56.1538 497.254 58.2087 500.659 58.2087C502.996 58.2087 505.232 57.1611 505.856 54.7435H502.653C502.331 55.5091 501.525 55.8919 500.699 55.8919C499.248 55.8919 498.422 54.945 498.362 53.5146H506.038ZM507.878 57.9065H511.302V52.7289C511.302 51.4194 512.189 50.2509 513.881 50.2509C514.345 50.2509 514.747 50.3315 515.191 50.4524V47.3297C514.929 47.2693 514.647 47.2492 514.385 47.2492C512.914 47.2492 511.746 47.9543 511.242 49.2839H511.202V47.4506H507.878V57.9065ZM519.195 54.9047C519.195 54.0787 519.84 53.7564 520.606 53.5751C521.351 53.3736 522.237 53.3132 522.721 53.011C522.802 55.1666 522.258 56.0933 520.626 56.0933C519.86 56.0933 519.195 55.7509 519.195 54.9047ZM519.397 50.674C519.558 49.7876 520.162 49.3645 521.109 49.3645C521.814 49.3645 522.761 49.6667 522.761 50.4524C522.761 51.0971 522.439 51.2985 521.855 51.4194C519.477 51.9029 515.771 51.641 515.771 55.0457C515.771 57.2014 517.342 58.2087 519.336 58.2087C520.585 58.2087 521.895 57.8461 522.781 56.9193C522.822 57.2618 522.862 57.5842 522.983 57.9065H526.428C526.025 57.0805 526.025 56.1135 526.025 55.227V50.6539C526.025 47.6924 523.628 47.1484 521.15 47.1484C519.961 47.1484 518.752 47.3499 517.825 47.8737C516.899 48.4176 516.254 49.3041 516.194 50.674H519.397ZM534.582 47.4506H532.467V44.2877H529.042V47.4506H527.31V49.6667H529.042V54.3205C529.042 57.1611 529.788 58.0072 532.709 58.0072C533.333 58.0072 533.958 57.9266 534.582 57.9065V55.3882C534.28 55.3882 533.978 55.4285 533.696 55.4285C532.951 55.4285 532.467 55.2472 532.467 54.4212V49.6667H534.582V47.4506ZM536.228 57.9065H539.653V47.4506H536.228V57.9065ZM539.653 43.5221H536.228V46.1411H539.653V43.5221ZM544.989 52.6886C544.989 51.359 545.473 49.7674 547.064 49.7674C548.656 49.7674 549.16 51.359 549.16 52.6886C549.16 54.0183 548.656 55.5897 547.064 55.5897C545.473 55.5897 544.989 54.0183 544.989 52.6886ZM541.565 52.6886C541.565 55.8314 543.821 58.2087 547.064 58.2087C550.308 58.2087 552.585 55.8314 552.585 52.6886C552.585 49.5458 550.308 47.1484 547.064 47.1484C543.821 47.1484 541.565 49.5458 541.565 52.6886ZM554.384 57.9065H557.809V52.2051C557.809 51.0568 558.373 49.9689 559.662 49.9689C561.536 49.9689 561.375 51.4194 561.375 52.8498V57.9065H564.8V51.1978C564.8 49.6868 564.518 47.1484 561.032 47.1484C559.783 47.1484 558.373 47.8132 557.749 48.881H557.708V47.4506H554.384V57.9065ZM566.47 54.4615C566.57 57.3827 569.109 58.2087 571.587 58.2087C573.944 58.2087 576.603 57.282 576.603 54.4816C576.603 53.6154 576.059 52.0842 573.944 51.6612C572.372 51.3187 570.076 51.1374 570.076 50.1502C570.076 49.4249 570.982 49.3645 571.546 49.3645C571.969 49.3645 572.352 49.4451 572.634 49.6264C572.916 49.8077 573.077 50.0898 573.077 50.533H576.24C576.12 47.8132 573.722 47.1484 571.425 47.1484C569.371 47.1484 566.651 47.8334 566.651 50.3517C566.651 53.1721 569.35 53.2326 571.506 53.7765C572.11 53.9175 573.178 54.0787 573.178 54.8846C573.178 55.7106 572.231 55.9926 571.567 55.9926C571.083 55.9926 570.62 55.8717 570.297 55.63C569.955 55.3681 569.733 54.9853 569.733 54.4615H566.47Z" fill="currentColor"/>
<line x1="426.681" y1="21.6667" x2="426.681" y2="57.7779" stroke="currentColor" stroke-width="0.380117"/>
</svg>
